<mxfile host="app.diagrams.net" modified="2022-08-08T15:02:06.494Z" agent="5.0 (Macintosh; Intel Mac OS X 10_15_7) AppleWebKit/537.36 (KHTML, like Gecko) Chrome/104.0.0.0 Safari/537.36" etag="gqY96sFyqHePVQF86Op6" version="20.2.3" type="github">
  <diagram id="jhaafFEPWd3DmiytivvX" name="Page-1">
    <mxGraphModel dx="3389" dy="2200" grid="1" gridSize="10" guides="1" tooltips="1" connect="1" arrows="1" fold="1" page="1" pageScale="1" pageWidth="850" pageHeight="1100" math="0" shadow="0">
      <root>
        <mxCell id="0" />
        <mxCell id="1" parent="0" />
        <object label="&lt;font color=&quot;#ffffff&quot;&gt;&amp;lt;%type%&amp;gt;&lt;br&gt;%name%&lt;br&gt;%createAt%&lt;br&gt;&lt;/font&gt;" placeholders="1" type="proposal" name="拍卖方案" createAt="create_at" id="BiotPJXr3foGRcshg_3U-2">
          <mxCell style="rounded=1;whiteSpace=wrap;html=1;fillColor=#FF66B3;noLabel=0;comic=0;recursiveResize=1;" vertex="1" parent="1">
            <mxGeometry x="310" y="870" width="170" height="100" as="geometry" />
          </mxCell>
        </object>
        <object label="&lt;font color=&quot;#ffffff&quot;&gt;&amp;lt;%type%&amp;gt;&lt;br&gt;%name%&lt;br&gt;%createAt%&lt;br&gt;&lt;/font&gt;" placeholders="1" type="contract" name="委托拍卖协议" createAt="create_at" id="BiotPJXr3foGRcshg_3U-3">
          <mxCell style="rounded=1;whiteSpace=wrap;html=1;fillColor=#FF66B3;noLabel=0;comic=0;recursiveResize=1;" vertex="1" parent="1">
            <mxGeometry x="30" y="340" width="170" height="100" as="geometry" />
          </mxCell>
        </object>
        <object label="&lt;font color=&quot;#ffffff&quot;&gt;&amp;lt;%type%&amp;gt;&lt;br&gt;%name%&lt;br&gt;%createAt%&lt;br&gt;%expireAt%&lt;br&gt;&lt;/font&gt;" placeholders="1" type="fulfilment" name="拍品送交请求" createAt="create_at" expireAt="expire_at" id="BiotPJXr3foGRcshg_3U-4">
          <mxCell style="rounded=1;whiteSpace=wrap;html=1;fillColor=#FF66B3;noLabel=0;comic=0;recursiveResize=1;" vertex="1" parent="1">
            <mxGeometry x="330" y="80" width="170" height="100" as="geometry" />
          </mxCell>
        </object>
        <object label="&lt;font color=&quot;#ffffff&quot;&gt;&amp;lt;%type%&amp;gt;&lt;br&gt;%name%&lt;br&gt;%createAt%&lt;br&gt;&lt;/font&gt;" placeholders="1" type="fulfilment" name="拍品送交确认" createAt="create_at" id="BiotPJXr3foGRcshg_3U-5">
          <mxCell style="rounded=1;whiteSpace=wrap;html=1;fillColor=#FF66B3;noLabel=0;comic=0;recursiveResize=1;" vertex="1" parent="1">
            <mxGeometry x="560" y="80" width="170" height="100" as="geometry" />
          </mxCell>
        </object>
        <object label="&lt;font style=&quot;font-size: 12px;&quot; color=&quot;#ffffff&quot;&gt;&amp;lt;%type%&amp;gt;&lt;br&gt;%name%&lt;br&gt;%createAt%&lt;br&gt;%expireAt%&lt;br&gt;&lt;/font&gt;" placeholders="1" type="rfp" name="委托意向登记" createAt="create_at" expireAt="expire_at" id="BiotPJXr3foGRcshg_3U-7">
          <mxCell style="rounded=1;whiteSpace=wrap;html=1;fillColor=#FF66B3;noLabel=0;comic=0;recursiveResize=1;" vertex="1" parent="1">
            <mxGeometry x="90" y="850" width="170" height="100" as="geometry" />
          </mxCell>
        </object>
        <object label="&lt;font color=&quot;#ffffff&quot;&gt;&amp;lt;%type%&amp;gt;&lt;br&gt;%name%&lt;br&gt;%createAt%&lt;br&gt;&lt;/font&gt;" placeholders="1" type="proposal" name="拍品估值" createAt="create_at" id="BiotPJXr3foGRcshg_3U-8">
          <mxCell style="rounded=1;whiteSpace=wrap;html=1;fillColor=#FF66B3;noLabel=0;comic=0;recursiveResize=1;" vertex="1" parent="1">
            <mxGeometry x="90" y="970" width="170" height="100" as="geometry" />
          </mxCell>
        </object>
        <object label="&lt;font color=&quot;#ffffff&quot;&gt;&amp;lt;%type%&amp;gt;&lt;br&gt;%name%&lt;br&gt;%createAt%&lt;br&gt;%expireAt%&lt;br&gt;&lt;/font&gt;" placeholders="1" type="fulfilment" name="拍品保管请求" createAt="create_at" expireAt="expire_at" id="BiotPJXr3foGRcshg_3U-9">
          <mxCell style="rounded=1;whiteSpace=wrap;html=1;fillColor=#FF66B3;noLabel=0;comic=0;recursiveResize=1;" vertex="1" parent="1">
            <mxGeometry x="330" y="200" width="170" height="100" as="geometry" />
          </mxCell>
        </object>
        <object label="&lt;font color=&quot;#ffffff&quot;&gt;&amp;lt;%type%&amp;gt;&lt;br&gt;%name%&lt;br&gt;%createAt%&lt;br&gt;&lt;/font&gt;" placeholders="1" type="fulfilment" name="拍品保管确认" createAt="create_at" id="BiotPJXr3foGRcshg_3U-10">
          <mxCell style="rounded=1;whiteSpace=wrap;html=1;fillColor=#FF66B3;noLabel=0;comic=0;recursiveResize=1;" vertex="1" parent="1">
            <mxGeometry x="560" y="200" width="170" height="100" as="geometry" />
          </mxCell>
        </object>
        <object label="&lt;font color=&quot;#ffffff&quot;&gt;&amp;lt;%type%&amp;gt;&lt;br&gt;%name%&lt;br&gt;%createAt%&lt;br&gt;%expireAt%&lt;br&gt;&lt;/font&gt;" placeholders="1" type="fulfilment" name="拍品公告请求" createAt="create_at" expireAt="expire_at" id="BiotPJXr3foGRcshg_3U-11">
          <mxCell style="rounded=1;whiteSpace=wrap;html=1;fillColor=#FF66B3;noLabel=0;comic=0;recursiveResize=1;" vertex="1" parent="1">
            <mxGeometry x="330" y="320" width="170" height="100" as="geometry" />
          </mxCell>
        </object>
        <object label="&lt;font color=&quot;#ffffff&quot;&gt;&amp;lt;%type%&amp;gt;&lt;br&gt;%name%&lt;br&gt;%createAt%&lt;br&gt;&lt;/font&gt;" placeholders="1" type="fulfilment" name="拍品公告确认" createAt="create_at" id="BiotPJXr3foGRcshg_3U-12">
          <mxCell style="rounded=1;whiteSpace=wrap;html=1;fillColor=#FF66B3;noLabel=0;comic=0;recursiveResize=1;" vertex="1" parent="1">
            <mxGeometry x="560" y="320" width="170" height="100" as="geometry" />
          </mxCell>
        </object>
        <object label="&lt;font color=&quot;#ffffff&quot;&gt;&amp;lt;%type%&amp;gt;&lt;br&gt;%name%&lt;br&gt;%createAt%&lt;br&gt;%expireAt%&lt;br&gt;&lt;/font&gt;" placeholders="1" type="fulfilment" name="成交剩余款项支付请求" createAt="create_at" expireAt="expire_at" id="BiotPJXr3foGRcshg_3U-13">
          <mxCell style="rounded=1;whiteSpace=wrap;html=1;fillColor=#FF66B3;noLabel=0;comic=0;recursiveResize=1;" vertex="1" parent="1">
            <mxGeometry x="330" y="440" width="170" height="100" as="geometry" />
          </mxCell>
        </object>
        <object label="&lt;font color=&quot;#ffffff&quot;&gt;&amp;lt;%type%&amp;gt;&lt;br&gt;%name%&lt;br&gt;%createAt%&lt;br&gt;&lt;/font&gt;" placeholders="1" type="fulfilment" name="成交剩余款项支付确认" createAt="create_at" id="BiotPJXr3foGRcshg_3U-14">
          <mxCell style="rounded=1;whiteSpace=wrap;html=1;fillColor=#FF66B3;noLabel=0;comic=0;recursiveResize=1;" vertex="1" parent="1">
            <mxGeometry x="560" y="440" width="170" height="100" as="geometry" />
          </mxCell>
        </object>
        <object label="&lt;font color=&quot;#ffffff&quot;&gt;&amp;lt;%type%&amp;gt;&lt;br&gt;%name%&lt;br&gt;%createAt%&lt;br&gt;%expireAt%&lt;br&gt;&lt;/font&gt;" placeholders="1" type="fulfilment" name="流拍服务费支付请求" createAt="create_at" expireAt="expire_at" id="BiotPJXr3foGRcshg_3U-16">
          <mxCell style="rounded=1;whiteSpace=wrap;html=1;fillColor=#FF66B3;noLabel=0;comic=0;recursiveResize=1;" vertex="1" parent="1">
            <mxGeometry x="330" y="560" width="170" height="100" as="geometry" />
          </mxCell>
        </object>
        <object label="&lt;font color=&quot;#ffffff&quot;&gt;&amp;lt;%type%&amp;gt;&lt;br&gt;%name%&lt;br&gt;%createAt%&lt;br&gt;&lt;/font&gt;" placeholders="1" type="fulfilment" name="流拍服务费支付确认" createAt="create_at" id="BiotPJXr3foGRcshg_3U-17">
          <mxCell style="rounded=1;whiteSpace=wrap;html=1;fillColor=#FF66B3;noLabel=0;comic=0;recursiveResize=1;" vertex="1" parent="1">
            <mxGeometry x="560" y="560" width="170" height="100" as="geometry" />
          </mxCell>
        </object>
        <object label="&lt;font color=&quot;#ffffff&quot;&gt;&amp;lt;%type%&amp;gt;&lt;br&gt;%name%&lt;br&gt;%createAt%&lt;br&gt;%expireAt%&lt;br&gt;&lt;/font&gt;" placeholders="1" type="fulfilment" name="撤回服务费支付请求" createAt="create_at" expireAt="expire_at" id="BiotPJXr3foGRcshg_3U-18">
          <mxCell style="rounded=1;whiteSpace=wrap;html=1;fillColor=#FF66B3;noLabel=0;comic=0;recursiveResize=1;" vertex="1" parent="1">
            <mxGeometry x="330" y="680" width="170" height="100" as="geometry" />
          </mxCell>
        </object>
        <object label="&lt;font color=&quot;#ffffff&quot;&gt;&amp;lt;%type%&amp;gt;&lt;br&gt;%name%&lt;br&gt;%createAt%&lt;br&gt;&lt;/font&gt;" placeholders="1" type="fulfilment" name="撤回服务费支付确认" createAt="create_at" id="BiotPJXr3foGRcshg_3U-19">
          <mxCell style="rounded=1;whiteSpace=wrap;html=1;fillColor=#FF66B3;noLabel=0;comic=0;recursiveResize=1;" vertex="1" parent="1">
            <mxGeometry x="560" y="680" width="170" height="100" as="geometry" />
          </mxCell>
        </object>
        <mxCell id="BiotPJXr3foGRcshg_3U-20" style="rounded=0;orthogonalLoop=1;jettySize=auto;html=1;exitX=1;exitY=0.5;exitDx=0;exitDy=0;entryX=0;entryY=0.5;entryDx=0;entryDy=0;endArrow=none;endFill=0;fontSize=12;" edge="1" parent="1" source="BiotPJXr3foGRcshg_3U-3" target="BiotPJXr3foGRcshg_3U-4">
          <mxGeometry relative="1" as="geometry">
            <mxPoint x="500" y="490" as="sourcePoint" />
            <mxPoint x="600" y="490" as="targetPoint" />
          </mxGeometry>
        </mxCell>
        <mxCell id="BiotPJXr3foGRcshg_3U-21" value="1" style="edgeLabel;html=1;align=center;verticalAlign=middle;resizable=0;points=[];fontSize=12;" vertex="1" connectable="0" parent="BiotPJXr3foGRcshg_3U-20">
          <mxGeometry x="-0.82" relative="1" as="geometry">
            <mxPoint y="-10" as="offset" />
          </mxGeometry>
        </mxCell>
        <mxCell id="BiotPJXr3foGRcshg_3U-22" value="1" style="edgeLabel;html=1;align=center;verticalAlign=middle;resizable=0;points=[];fontSize=12;" vertex="1" connectable="0" parent="BiotPJXr3foGRcshg_3U-20">
          <mxGeometry x="0.72" y="-1" relative="1" as="geometry">
            <mxPoint y="-11" as="offset" />
          </mxGeometry>
        </mxCell>
        <mxCell id="BiotPJXr3foGRcshg_3U-23" style="edgeStyle=orthogonalEdgeStyle;rounded=0;orthogonalLoop=1;jettySize=auto;html=1;exitX=1;exitY=0.5;exitDx=0;exitDy=0;entryX=0;entryY=0.5;entryDx=0;entryDy=0;endArrow=none;endFill=0;fontSize=12;" edge="1" parent="1" source="BiotPJXr3foGRcshg_3U-4" target="BiotPJXr3foGRcshg_3U-5">
          <mxGeometry relative="1" as="geometry">
            <mxPoint x="500" y="490" as="sourcePoint" />
            <mxPoint x="600" y="490" as="targetPoint" />
          </mxGeometry>
        </mxCell>
        <mxCell id="BiotPJXr3foGRcshg_3U-24" value="1" style="edgeLabel;html=1;align=center;verticalAlign=middle;resizable=0;points=[];fontSize=12;" vertex="1" connectable="0" parent="BiotPJXr3foGRcshg_3U-23">
          <mxGeometry x="-0.82" relative="1" as="geometry">
            <mxPoint y="-10" as="offset" />
          </mxGeometry>
        </mxCell>
        <mxCell id="BiotPJXr3foGRcshg_3U-25" value="1" style="edgeLabel;html=1;align=center;verticalAlign=middle;resizable=0;points=[];fontSize=12;" vertex="1" connectable="0" parent="BiotPJXr3foGRcshg_3U-23">
          <mxGeometry x="0.72" y="-1" relative="1" as="geometry">
            <mxPoint y="-11" as="offset" />
          </mxGeometry>
        </mxCell>
        <mxCell id="BiotPJXr3foGRcshg_3U-26" style="edgeStyle=orthogonalEdgeStyle;rounded=0;orthogonalLoop=1;jettySize=auto;html=1;exitX=1;exitY=0.5;exitDx=0;exitDy=0;endArrow=none;endFill=0;fontSize=12;entryX=0;entryY=0.5;entryDx=0;entryDy=0;" edge="1" parent="1" source="BiotPJXr3foGRcshg_3U-9" target="BiotPJXr3foGRcshg_3U-10">
          <mxGeometry relative="1" as="geometry">
            <mxPoint x="510" y="140" as="sourcePoint" />
            <mxPoint x="560" y="250" as="targetPoint" />
          </mxGeometry>
        </mxCell>
        <mxCell id="BiotPJXr3foGRcshg_3U-27" value="1" style="edgeLabel;html=1;align=center;verticalAlign=middle;resizable=0;points=[];fontSize=12;" vertex="1" connectable="0" parent="BiotPJXr3foGRcshg_3U-26">
          <mxGeometry x="-0.82" relative="1" as="geometry">
            <mxPoint y="-10" as="offset" />
          </mxGeometry>
        </mxCell>
        <mxCell id="BiotPJXr3foGRcshg_3U-28" value="1" style="edgeLabel;html=1;align=center;verticalAlign=middle;resizable=0;points=[];fontSize=12;" vertex="1" connectable="0" parent="BiotPJXr3foGRcshg_3U-26">
          <mxGeometry x="0.72" y="-1" relative="1" as="geometry">
            <mxPoint y="-11" as="offset" />
          </mxGeometry>
        </mxCell>
        <mxCell id="BiotPJXr3foGRcshg_3U-29" style="edgeStyle=orthogonalEdgeStyle;rounded=0;orthogonalLoop=1;jettySize=auto;html=1;exitX=1;exitY=0.5;exitDx=0;exitDy=0;endArrow=none;endFill=0;fontSize=12;entryX=0;entryY=0.5;entryDx=0;entryDy=0;" edge="1" parent="1" source="BiotPJXr3foGRcshg_3U-11" target="BiotPJXr3foGRcshg_3U-12">
          <mxGeometry relative="1" as="geometry">
            <mxPoint x="510" y="260" as="sourcePoint" />
            <mxPoint x="570" y="260" as="targetPoint" />
          </mxGeometry>
        </mxCell>
        <mxCell id="BiotPJXr3foGRcshg_3U-30" value="1" style="edgeLabel;html=1;align=center;verticalAlign=middle;resizable=0;points=[];fontSize=12;" vertex="1" connectable="0" parent="BiotPJXr3foGRcshg_3U-29">
          <mxGeometry x="-0.82" relative="1" as="geometry">
            <mxPoint y="-10" as="offset" />
          </mxGeometry>
        </mxCell>
        <mxCell id="BiotPJXr3foGRcshg_3U-31" value="1" style="edgeLabel;html=1;align=center;verticalAlign=middle;resizable=0;points=[];fontSize=12;" vertex="1" connectable="0" parent="BiotPJXr3foGRcshg_3U-29">
          <mxGeometry x="0.72" y="-1" relative="1" as="geometry">
            <mxPoint y="-11" as="offset" />
          </mxGeometry>
        </mxCell>
        <mxCell id="BiotPJXr3foGRcshg_3U-32" style="edgeStyle=orthogonalEdgeStyle;rounded=0;orthogonalLoop=1;jettySize=auto;html=1;exitX=1;exitY=0.5;exitDx=0;exitDy=0;endArrow=none;endFill=0;fontSize=12;entryX=0;entryY=0.5;entryDx=0;entryDy=0;" edge="1" parent="1" source="BiotPJXr3foGRcshg_3U-13" target="BiotPJXr3foGRcshg_3U-14">
          <mxGeometry relative="1" as="geometry">
            <mxPoint x="520" y="270" as="sourcePoint" />
            <mxPoint x="560" y="490" as="targetPoint" />
          </mxGeometry>
        </mxCell>
        <mxCell id="BiotPJXr3foGRcshg_3U-33" value="1" style="edgeLabel;html=1;align=center;verticalAlign=middle;resizable=0;points=[];fontSize=12;" vertex="1" connectable="0" parent="BiotPJXr3foGRcshg_3U-32">
          <mxGeometry x="-0.82" relative="1" as="geometry">
            <mxPoint y="-10" as="offset" />
          </mxGeometry>
        </mxCell>
        <mxCell id="BiotPJXr3foGRcshg_3U-34" value="1" style="edgeLabel;html=1;align=center;verticalAlign=middle;resizable=0;points=[];fontSize=12;" vertex="1" connectable="0" parent="BiotPJXr3foGRcshg_3U-32">
          <mxGeometry x="0.72" y="-1" relative="1" as="geometry">
            <mxPoint y="-11" as="offset" />
          </mxGeometry>
        </mxCell>
        <mxCell id="BiotPJXr3foGRcshg_3U-35" style="edgeStyle=orthogonalEdgeStyle;rounded=0;orthogonalLoop=1;jettySize=auto;html=1;exitX=1;exitY=0.5;exitDx=0;exitDy=0;endArrow=none;endFill=0;fontSize=12;entryX=0;entryY=0.5;entryDx=0;entryDy=0;" edge="1" parent="1" source="BiotPJXr3foGRcshg_3U-16" target="BiotPJXr3foGRcshg_3U-17">
          <mxGeometry relative="1" as="geometry">
            <mxPoint x="530" y="280" as="sourcePoint" />
            <mxPoint x="590" y="280" as="targetPoint" />
          </mxGeometry>
        </mxCell>
        <mxCell id="BiotPJXr3foGRcshg_3U-36" value="1" style="edgeLabel;html=1;align=center;verticalAlign=middle;resizable=0;points=[];fontSize=12;" vertex="1" connectable="0" parent="BiotPJXr3foGRcshg_3U-35">
          <mxGeometry x="-0.82" relative="1" as="geometry">
            <mxPoint y="-10" as="offset" />
          </mxGeometry>
        </mxCell>
        <mxCell id="BiotPJXr3foGRcshg_3U-37" value="1" style="edgeLabel;html=1;align=center;verticalAlign=middle;resizable=0;points=[];fontSize=12;" vertex="1" connectable="0" parent="BiotPJXr3foGRcshg_3U-35">
          <mxGeometry x="0.72" y="-1" relative="1" as="geometry">
            <mxPoint y="-11" as="offset" />
          </mxGeometry>
        </mxCell>
        <mxCell id="BiotPJXr3foGRcshg_3U-38" style="edgeStyle=orthogonalEdgeStyle;rounded=0;orthogonalLoop=1;jettySize=auto;html=1;exitX=1;exitY=0.5;exitDx=0;exitDy=0;endArrow=none;endFill=0;fontSize=12;entryX=0;entryY=0.5;entryDx=0;entryDy=0;" edge="1" parent="1" source="BiotPJXr3foGRcshg_3U-18" target="BiotPJXr3foGRcshg_3U-19">
          <mxGeometry relative="1" as="geometry">
            <mxPoint x="540" y="290" as="sourcePoint" />
            <mxPoint x="600" y="290" as="targetPoint" />
          </mxGeometry>
        </mxCell>
        <mxCell id="BiotPJXr3foGRcshg_3U-39" value="1" style="edgeLabel;html=1;align=center;verticalAlign=middle;resizable=0;points=[];fontSize=12;" vertex="1" connectable="0" parent="BiotPJXr3foGRcshg_3U-38">
          <mxGeometry x="-0.82" relative="1" as="geometry">
            <mxPoint y="-10" as="offset" />
          </mxGeometry>
        </mxCell>
        <mxCell id="BiotPJXr3foGRcshg_3U-40" value="1" style="edgeLabel;html=1;align=center;verticalAlign=middle;resizable=0;points=[];fontSize=12;" vertex="1" connectable="0" parent="BiotPJXr3foGRcshg_3U-38">
          <mxGeometry x="0.72" y="-1" relative="1" as="geometry">
            <mxPoint y="-11" as="offset" />
          </mxGeometry>
        </mxCell>
        <mxCell id="BiotPJXr3foGRcshg_3U-41" style="rounded=0;orthogonalLoop=1;jettySize=auto;html=1;entryX=0;entryY=0.5;entryDx=0;entryDy=0;endArrow=none;endFill=0;fontSize=12;" edge="1" parent="1" target="BiotPJXr3foGRcshg_3U-9">
          <mxGeometry relative="1" as="geometry">
            <mxPoint x="200" y="390" as="sourcePoint" />
            <mxPoint x="340" y="140" as="targetPoint" />
          </mxGeometry>
        </mxCell>
        <mxCell id="BiotPJXr3foGRcshg_3U-42" value="1" style="edgeLabel;html=1;align=center;verticalAlign=middle;resizable=0;points=[];fontSize=12;" vertex="1" connectable="0" parent="BiotPJXr3foGRcshg_3U-41">
          <mxGeometry x="-0.82" relative="1" as="geometry">
            <mxPoint y="-10" as="offset" />
          </mxGeometry>
        </mxCell>
        <mxCell id="BiotPJXr3foGRcshg_3U-43" value="1" style="edgeLabel;html=1;align=center;verticalAlign=middle;resizable=0;points=[];fontSize=12;" vertex="1" connectable="0" parent="BiotPJXr3foGRcshg_3U-41">
          <mxGeometry x="0.72" y="-1" relative="1" as="geometry">
            <mxPoint y="-11" as="offset" />
          </mxGeometry>
        </mxCell>
        <mxCell id="BiotPJXr3foGRcshg_3U-44" style="rounded=0;orthogonalLoop=1;jettySize=auto;html=1;entryX=0;entryY=0.5;entryDx=0;entryDy=0;endArrow=none;endFill=0;fontSize=12;" edge="1" parent="1" target="BiotPJXr3foGRcshg_3U-11">
          <mxGeometry relative="1" as="geometry">
            <mxPoint x="200" y="390" as="sourcePoint" />
            <mxPoint x="350" y="150" as="targetPoint" />
          </mxGeometry>
        </mxCell>
        <mxCell id="BiotPJXr3foGRcshg_3U-45" value="1" style="edgeLabel;html=1;align=center;verticalAlign=middle;resizable=0;points=[];fontSize=12;" vertex="1" connectable="0" parent="BiotPJXr3foGRcshg_3U-44">
          <mxGeometry x="-0.82" relative="1" as="geometry">
            <mxPoint y="-10" as="offset" />
          </mxGeometry>
        </mxCell>
        <mxCell id="BiotPJXr3foGRcshg_3U-46" value="1" style="edgeLabel;html=1;align=center;verticalAlign=middle;resizable=0;points=[];fontSize=12;" vertex="1" connectable="0" parent="BiotPJXr3foGRcshg_3U-44">
          <mxGeometry x="0.72" y="-1" relative="1" as="geometry">
            <mxPoint y="-11" as="offset" />
          </mxGeometry>
        </mxCell>
        <mxCell id="BiotPJXr3foGRcshg_3U-47" style="rounded=0;orthogonalLoop=1;jettySize=auto;html=1;exitX=1;exitY=0.5;exitDx=0;exitDy=0;entryX=0;entryY=0.5;entryDx=0;entryDy=0;endArrow=none;endFill=0;fontSize=12;" edge="1" parent="1" source="BiotPJXr3foGRcshg_3U-3" target="BiotPJXr3foGRcshg_3U-13">
          <mxGeometry relative="1" as="geometry">
            <mxPoint x="230" y="420" as="sourcePoint" />
            <mxPoint x="360" y="160" as="targetPoint" />
          </mxGeometry>
        </mxCell>
        <mxCell id="BiotPJXr3foGRcshg_3U-48" value="1" style="edgeLabel;html=1;align=center;verticalAlign=middle;resizable=0;points=[];fontSize=12;" vertex="1" connectable="0" parent="BiotPJXr3foGRcshg_3U-47">
          <mxGeometry x="-0.82" relative="1" as="geometry">
            <mxPoint y="-10" as="offset" />
          </mxGeometry>
        </mxCell>
        <mxCell id="BiotPJXr3foGRcshg_3U-49" value="1" style="edgeLabel;html=1;align=center;verticalAlign=middle;resizable=0;points=[];fontSize=12;" vertex="1" connectable="0" parent="BiotPJXr3foGRcshg_3U-47">
          <mxGeometry x="0.72" y="-1" relative="1" as="geometry">
            <mxPoint y="-11" as="offset" />
          </mxGeometry>
        </mxCell>
        <mxCell id="BiotPJXr3foGRcshg_3U-50" style="rounded=0;orthogonalLoop=1;jettySize=auto;html=1;entryX=0;entryY=0.5;entryDx=0;entryDy=0;endArrow=none;endFill=0;fontSize=12;exitX=1;exitY=0.5;exitDx=0;exitDy=0;" edge="1" parent="1" source="BiotPJXr3foGRcshg_3U-3" target="BiotPJXr3foGRcshg_3U-16">
          <mxGeometry relative="1" as="geometry">
            <mxPoint x="200" y="380" as="sourcePoint" />
            <mxPoint x="370" y="170" as="targetPoint" />
          </mxGeometry>
        </mxCell>
        <mxCell id="BiotPJXr3foGRcshg_3U-51" value="1" style="edgeLabel;html=1;align=center;verticalAlign=middle;resizable=0;points=[];fontSize=12;" vertex="1" connectable="0" parent="BiotPJXr3foGRcshg_3U-50">
          <mxGeometry x="-0.82" relative="1" as="geometry">
            <mxPoint y="-10" as="offset" />
          </mxGeometry>
        </mxCell>
        <mxCell id="BiotPJXr3foGRcshg_3U-52" value="1" style="edgeLabel;html=1;align=center;verticalAlign=middle;resizable=0;points=[];fontSize=12;" vertex="1" connectable="0" parent="BiotPJXr3foGRcshg_3U-50">
          <mxGeometry x="0.72" y="-1" relative="1" as="geometry">
            <mxPoint y="-11" as="offset" />
          </mxGeometry>
        </mxCell>
        <mxCell id="BiotPJXr3foGRcshg_3U-53" style="rounded=0;orthogonalLoop=1;jettySize=auto;html=1;exitX=1;exitY=0.5;exitDx=0;exitDy=0;entryX=0;entryY=0.5;entryDx=0;entryDy=0;endArrow=none;endFill=0;fontSize=12;" edge="1" parent="1" source="BiotPJXr3foGRcshg_3U-3" target="BiotPJXr3foGRcshg_3U-18">
          <mxGeometry relative="1" as="geometry">
            <mxPoint x="250" y="440" as="sourcePoint" />
            <mxPoint x="380" y="180" as="targetPoint" />
          </mxGeometry>
        </mxCell>
        <mxCell id="BiotPJXr3foGRcshg_3U-54" value="1" style="edgeLabel;html=1;align=center;verticalAlign=middle;resizable=0;points=[];fontSize=12;" vertex="1" connectable="0" parent="BiotPJXr3foGRcshg_3U-53">
          <mxGeometry x="-0.82" relative="1" as="geometry">
            <mxPoint y="-10" as="offset" />
          </mxGeometry>
        </mxCell>
        <mxCell id="BiotPJXr3foGRcshg_3U-55" value="1" style="edgeLabel;html=1;align=center;verticalAlign=middle;resizable=0;points=[];fontSize=12;" vertex="1" connectable="0" parent="BiotPJXr3foGRcshg_3U-53">
          <mxGeometry x="0.72" y="-1" relative="1" as="geometry">
            <mxPoint y="-11" as="offset" />
          </mxGeometry>
        </mxCell>
        <object label="&lt;font color=&quot;#ffffff&quot;&gt;&amp;lt;%type%&amp;gt;&lt;br&gt;%name%&lt;br&gt;%createAt%&lt;br&gt;&lt;/font&gt;" placeholders="1" type="contract" name="竞买协议" createAt="create_at" id="BiotPJXr3foGRcshg_3U-56">
          <mxCell style="rounded=1;whiteSpace=wrap;html=1;fillColor=#FF66B3;noLabel=0;comic=0;recursiveResize=1;" vertex="1" parent="1">
            <mxGeometry x="820" y="340" width="170" height="100" as="geometry" />
          </mxCell>
        </object>
        <object label="&lt;font color=&quot;#ffffff&quot;&gt;&amp;lt;%type%&amp;gt;&lt;br&gt;%name%&lt;br&gt;%createAt%&lt;br&gt;%expireAt%&lt;br&gt;&lt;/font&gt;" placeholders="1" type="fulfilment" name="保证金缴纳请求" createAt="create_at" expireAt="expire_at" id="BiotPJXr3foGRcshg_3U-57">
          <mxCell style="rounded=1;whiteSpace=wrap;html=1;fillColor=#FF66B3;noLabel=0;comic=0;recursiveResize=1;" vertex="1" parent="1">
            <mxGeometry x="1120" y="80" width="170" height="100" as="geometry" />
          </mxCell>
        </object>
        <object label="&lt;font color=&quot;#ffffff&quot;&gt;&amp;lt;%type%&amp;gt;&lt;br&gt;%name%&lt;br&gt;%createAt%&lt;br&gt;&lt;/font&gt;" placeholders="1" type="fulfilment" name="保证金缴纳确认" createAt="create_at" id="BiotPJXr3foGRcshg_3U-58">
          <mxCell style="rounded=1;whiteSpace=wrap;html=1;fillColor=#FF66B3;noLabel=0;comic=0;recursiveResize=1;" vertex="1" parent="1">
            <mxGeometry x="1350" y="80" width="170" height="100" as="geometry" />
          </mxCell>
        </object>
        <object label="&lt;font color=&quot;#ffffff&quot;&gt;&amp;lt;%type%&amp;gt;&lt;br&gt;%name%&lt;br&gt;%createAt%&lt;br&gt;%expireAt%&lt;br&gt;&lt;/font&gt;" placeholders="1" type="fulfilment" name="拍品保管请求" createAt="create_at" expireAt="expire_at" id="BiotPJXr3foGRcshg_3U-59">
          <mxCell style="rounded=1;whiteSpace=wrap;html=1;fillColor=#FF66B3;noLabel=0;comic=0;recursiveResize=1;" vertex="1" parent="1">
            <mxGeometry x="1120" y="200" width="170" height="100" as="geometry" />
          </mxCell>
        </object>
        <object label="&lt;font color=&quot;#ffffff&quot;&gt;&amp;lt;%type%&amp;gt;&lt;br&gt;%name%&lt;br&gt;%createAt%&lt;br&gt;&lt;/font&gt;" placeholders="1" type="fulfilment" name="拍品保管确认" createAt="create_at" id="BiotPJXr3foGRcshg_3U-60">
          <mxCell style="rounded=1;whiteSpace=wrap;html=1;fillColor=#FF66B3;noLabel=0;comic=0;recursiveResize=1;" vertex="1" parent="1">
            <mxGeometry x="1350" y="200" width="170" height="100" as="geometry" />
          </mxCell>
        </object>
        <object label="&lt;font color=&quot;#ffffff&quot;&gt;&amp;lt;%type%&amp;gt;&lt;br&gt;%name%&lt;br&gt;%createAt%&lt;br&gt;%expireAt%&lt;br&gt;&lt;/font&gt;" placeholders="1" type="fulfilment" name="竞买人应价请求" createAt="create_at" expireAt="expire_at" id="BiotPJXr3foGRcshg_3U-61">
          <mxCell style="rounded=1;whiteSpace=wrap;html=1;fillColor=#FF66B3;noLabel=0;comic=0;recursiveResize=1;" vertex="1" parent="1">
            <mxGeometry x="1120" y="320" width="170" height="100" as="geometry" />
          </mxCell>
        </object>
        <object label="&lt;font color=&quot;#ffffff&quot;&gt;&amp;lt;%type%&amp;gt;&lt;br&gt;%name%&lt;br&gt;%createAt%&lt;br&gt;&lt;/font&gt;" placeholders="1" type="fulfilment" name="竞买人应价确认" createAt="create_at" id="BiotPJXr3foGRcshg_3U-62">
          <mxCell style="rounded=1;whiteSpace=wrap;html=1;fillColor=#FF66B3;noLabel=0;comic=0;recursiveResize=1;" vertex="1" parent="1">
            <mxGeometry x="1350" y="320" width="170" height="100" as="geometry" />
          </mxCell>
        </object>
        <object label="&lt;font color=&quot;#ffffff&quot;&gt;&amp;lt;%type%&amp;gt;&lt;br&gt;%name%&lt;br&gt;%createAt%&lt;br&gt;%expireAt%&lt;br&gt;&lt;/font&gt;" placeholders="1" type="fulfilment" name="拍品拍卖情况查看请求" createAt="create_at" expireAt="expire_at" id="BiotPJXr3foGRcshg_3U-63">
          <mxCell style="rounded=1;whiteSpace=wrap;html=1;fillColor=#FF66B3;noLabel=0;comic=0;recursiveResize=1;" vertex="1" parent="1">
            <mxGeometry x="1120" y="440" width="170" height="100" as="geometry" />
          </mxCell>
        </object>
        <object label="&lt;font color=&quot;#ffffff&quot;&gt;&amp;lt;%type%&amp;gt;&lt;br&gt;%name%&lt;br&gt;%createAt%&lt;br&gt;&lt;/font&gt;" placeholders="1" type="fulfilment" name="拍品拍卖情况查看确认" createAt="create_at" id="BiotPJXr3foGRcshg_3U-64">
          <mxCell style="rounded=1;whiteSpace=wrap;html=1;fillColor=#FF66B3;noLabel=0;comic=0;recursiveResize=1;" vertex="1" parent="1">
            <mxGeometry x="1350" y="440" width="170" height="100" as="geometry" />
          </mxCell>
        </object>
        <object label="&lt;font color=&quot;#ffffff&quot;&gt;&amp;lt;%type%&amp;gt;&lt;br&gt;%name%&lt;br&gt;%createAt%&lt;br&gt;%expireAt%&lt;br&gt;&lt;/font&gt;" placeholders="1" type="fulfilment" name="保证金退还请求" createAt="create_at" expireAt="expire_at" id="BiotPJXr3foGRcshg_3U-65">
          <mxCell style="rounded=1;whiteSpace=wrap;html=1;fillColor=#FF66B3;noLabel=0;comic=0;recursiveResize=1;" vertex="1" parent="1">
            <mxGeometry x="1120" y="560" width="170" height="100" as="geometry" />
          </mxCell>
        </object>
        <object label="&lt;font color=&quot;#ffffff&quot;&gt;&amp;lt;%type%&amp;gt;&lt;br&gt;%name%&lt;br&gt;%createAt%&lt;br&gt;&lt;/font&gt;" placeholders="1" type="fulfilment" name="保证金退还确认" createAt="create_at" id="BiotPJXr3foGRcshg_3U-66">
          <mxCell style="rounded=1;whiteSpace=wrap;html=1;fillColor=#FF66B3;noLabel=0;comic=0;recursiveResize=1;" vertex="1" parent="1">
            <mxGeometry x="1350" y="560" width="170" height="100" as="geometry" />
          </mxCell>
        </object>
        <mxCell id="BiotPJXr3foGRcshg_3U-69" style="rounded=0;orthogonalLoop=1;jettySize=auto;html=1;exitX=1;exitY=0.5;exitDx=0;exitDy=0;entryX=0;entryY=0.5;entryDx=0;entryDy=0;endArrow=none;endFill=0;fontSize=12;" edge="1" parent="1" source="BiotPJXr3foGRcshg_3U-56" target="BiotPJXr3foGRcshg_3U-57">
          <mxGeometry relative="1" as="geometry">
            <mxPoint x="1290" y="490" as="sourcePoint" />
            <mxPoint x="1390" y="490" as="targetPoint" />
          </mxGeometry>
        </mxCell>
        <mxCell id="BiotPJXr3foGRcshg_3U-70" value="1" style="edgeLabel;html=1;align=center;verticalAlign=middle;resizable=0;points=[];fontSize=12;" vertex="1" connectable="0" parent="BiotPJXr3foGRcshg_3U-69">
          <mxGeometry x="-0.82" relative="1" as="geometry">
            <mxPoint y="-10" as="offset" />
          </mxGeometry>
        </mxCell>
        <mxCell id="BiotPJXr3foGRcshg_3U-71" value="1" style="edgeLabel;html=1;align=center;verticalAlign=middle;resizable=0;points=[];fontSize=12;" vertex="1" connectable="0" parent="BiotPJXr3foGRcshg_3U-69">
          <mxGeometry x="0.72" y="-1" relative="1" as="geometry">
            <mxPoint y="-11" as="offset" />
          </mxGeometry>
        </mxCell>
        <mxCell id="BiotPJXr3foGRcshg_3U-72" style="edgeStyle=orthogonalEdgeStyle;rounded=0;orthogonalLoop=1;jettySize=auto;html=1;exitX=1;exitY=0.5;exitDx=0;exitDy=0;entryX=0;entryY=0.5;entryDx=0;entryDy=0;endArrow=none;endFill=0;fontSize=12;" edge="1" parent="1" source="BiotPJXr3foGRcshg_3U-57" target="BiotPJXr3foGRcshg_3U-58">
          <mxGeometry relative="1" as="geometry">
            <mxPoint x="1290" y="490" as="sourcePoint" />
            <mxPoint x="1390" y="490" as="targetPoint" />
          </mxGeometry>
        </mxCell>
        <mxCell id="BiotPJXr3foGRcshg_3U-73" value="1" style="edgeLabel;html=1;align=center;verticalAlign=middle;resizable=0;points=[];fontSize=12;" vertex="1" connectable="0" parent="BiotPJXr3foGRcshg_3U-72">
          <mxGeometry x="-0.82" relative="1" as="geometry">
            <mxPoint y="-10" as="offset" />
          </mxGeometry>
        </mxCell>
        <mxCell id="BiotPJXr3foGRcshg_3U-74" value="1" style="edgeLabel;html=1;align=center;verticalAlign=middle;resizable=0;points=[];fontSize=12;" vertex="1" connectable="0" parent="BiotPJXr3foGRcshg_3U-72">
          <mxGeometry x="0.72" y="-1" relative="1" as="geometry">
            <mxPoint y="-11" as="offset" />
          </mxGeometry>
        </mxCell>
        <mxCell id="BiotPJXr3foGRcshg_3U-75" style="edgeStyle=orthogonalEdgeStyle;rounded=0;orthogonalLoop=1;jettySize=auto;html=1;exitX=1;exitY=0.5;exitDx=0;exitDy=0;endArrow=none;endFill=0;fontSize=12;entryX=0;entryY=0.5;entryDx=0;entryDy=0;" edge="1" parent="1" source="BiotPJXr3foGRcshg_3U-59" target="BiotPJXr3foGRcshg_3U-60">
          <mxGeometry relative="1" as="geometry">
            <mxPoint x="1300" y="140" as="sourcePoint" />
            <mxPoint x="1350" y="250" as="targetPoint" />
          </mxGeometry>
        </mxCell>
        <mxCell id="BiotPJXr3foGRcshg_3U-76" value="1" style="edgeLabel;html=1;align=center;verticalAlign=middle;resizable=0;points=[];fontSize=12;" vertex="1" connectable="0" parent="BiotPJXr3foGRcshg_3U-75">
          <mxGeometry x="-0.82" relative="1" as="geometry">
            <mxPoint y="-10" as="offset" />
          </mxGeometry>
        </mxCell>
        <mxCell id="BiotPJXr3foGRcshg_3U-77" value="1" style="edgeLabel;html=1;align=center;verticalAlign=middle;resizable=0;points=[];fontSize=12;" vertex="1" connectable="0" parent="BiotPJXr3foGRcshg_3U-75">
          <mxGeometry x="0.72" y="-1" relative="1" as="geometry">
            <mxPoint y="-11" as="offset" />
          </mxGeometry>
        </mxCell>
        <mxCell id="BiotPJXr3foGRcshg_3U-78" style="edgeStyle=orthogonalEdgeStyle;rounded=0;orthogonalLoop=1;jettySize=auto;html=1;exitX=1;exitY=0.5;exitDx=0;exitDy=0;endArrow=none;endFill=0;fontSize=12;entryX=0;entryY=0.5;entryDx=0;entryDy=0;" edge="1" parent="1" source="BiotPJXr3foGRcshg_3U-61" target="BiotPJXr3foGRcshg_3U-62">
          <mxGeometry relative="1" as="geometry">
            <mxPoint x="1300" y="260" as="sourcePoint" />
            <mxPoint x="1360" y="260" as="targetPoint" />
          </mxGeometry>
        </mxCell>
        <mxCell id="BiotPJXr3foGRcshg_3U-79" value="1" style="edgeLabel;html=1;align=center;verticalAlign=middle;resizable=0;points=[];fontSize=12;" vertex="1" connectable="0" parent="BiotPJXr3foGRcshg_3U-78">
          <mxGeometry x="-0.82" relative="1" as="geometry">
            <mxPoint y="-10" as="offset" />
          </mxGeometry>
        </mxCell>
        <mxCell id="BiotPJXr3foGRcshg_3U-80" value="1" style="edgeLabel;html=1;align=center;verticalAlign=middle;resizable=0;points=[];fontSize=12;" vertex="1" connectable="0" parent="BiotPJXr3foGRcshg_3U-78">
          <mxGeometry x="0.72" y="-1" relative="1" as="geometry">
            <mxPoint y="-11" as="offset" />
          </mxGeometry>
        </mxCell>
        <mxCell id="BiotPJXr3foGRcshg_3U-81" style="edgeStyle=orthogonalEdgeStyle;rounded=0;orthogonalLoop=1;jettySize=auto;html=1;exitX=1;exitY=0.5;exitDx=0;exitDy=0;endArrow=none;endFill=0;fontSize=12;entryX=0;entryY=0.5;entryDx=0;entryDy=0;" edge="1" parent="1" source="BiotPJXr3foGRcshg_3U-63" target="BiotPJXr3foGRcshg_3U-64">
          <mxGeometry relative="1" as="geometry">
            <mxPoint x="1310" y="270" as="sourcePoint" />
            <mxPoint x="1350" y="490" as="targetPoint" />
          </mxGeometry>
        </mxCell>
        <mxCell id="BiotPJXr3foGRcshg_3U-82" value="1" style="edgeLabel;html=1;align=center;verticalAlign=middle;resizable=0;points=[];fontSize=12;" vertex="1" connectable="0" parent="BiotPJXr3foGRcshg_3U-81">
          <mxGeometry x="-0.82" relative="1" as="geometry">
            <mxPoint y="-10" as="offset" />
          </mxGeometry>
        </mxCell>
        <mxCell id="BiotPJXr3foGRcshg_3U-83" value="1" style="edgeLabel;html=1;align=center;verticalAlign=middle;resizable=0;points=[];fontSize=12;" vertex="1" connectable="0" parent="BiotPJXr3foGRcshg_3U-81">
          <mxGeometry x="0.72" y="-1" relative="1" as="geometry">
            <mxPoint y="-11" as="offset" />
          </mxGeometry>
        </mxCell>
        <mxCell id="BiotPJXr3foGRcshg_3U-84" style="edgeStyle=orthogonalEdgeStyle;rounded=0;orthogonalLoop=1;jettySize=auto;html=1;exitX=1;exitY=0.5;exitDx=0;exitDy=0;endArrow=none;endFill=0;fontSize=12;entryX=0;entryY=0.5;entryDx=0;entryDy=0;" edge="1" parent="1" source="BiotPJXr3foGRcshg_3U-65" target="BiotPJXr3foGRcshg_3U-66">
          <mxGeometry relative="1" as="geometry">
            <mxPoint x="1320" y="280" as="sourcePoint" />
            <mxPoint x="1380" y="280" as="targetPoint" />
          </mxGeometry>
        </mxCell>
        <mxCell id="BiotPJXr3foGRcshg_3U-85" value="1" style="edgeLabel;html=1;align=center;verticalAlign=middle;resizable=0;points=[];fontSize=12;" vertex="1" connectable="0" parent="BiotPJXr3foGRcshg_3U-84">
          <mxGeometry x="-0.82" relative="1" as="geometry">
            <mxPoint y="-10" as="offset" />
          </mxGeometry>
        </mxCell>
        <mxCell id="BiotPJXr3foGRcshg_3U-86" value="1" style="edgeLabel;html=1;align=center;verticalAlign=middle;resizable=0;points=[];fontSize=12;" vertex="1" connectable="0" parent="BiotPJXr3foGRcshg_3U-84">
          <mxGeometry x="0.72" y="-1" relative="1" as="geometry">
            <mxPoint y="-11" as="offset" />
          </mxGeometry>
        </mxCell>
        <mxCell id="BiotPJXr3foGRcshg_3U-90" style="rounded=0;orthogonalLoop=1;jettySize=auto;html=1;entryX=0;entryY=0.5;entryDx=0;entryDy=0;endArrow=none;endFill=0;fontSize=12;" edge="1" parent="1" target="BiotPJXr3foGRcshg_3U-59">
          <mxGeometry relative="1" as="geometry">
            <mxPoint x="990" y="390" as="sourcePoint" />
            <mxPoint x="1130" y="140" as="targetPoint" />
          </mxGeometry>
        </mxCell>
        <mxCell id="BiotPJXr3foGRcshg_3U-91" value="1" style="edgeLabel;html=1;align=center;verticalAlign=middle;resizable=0;points=[];fontSize=12;" vertex="1" connectable="0" parent="BiotPJXr3foGRcshg_3U-90">
          <mxGeometry x="-0.82" relative="1" as="geometry">
            <mxPoint y="-10" as="offset" />
          </mxGeometry>
        </mxCell>
        <mxCell id="BiotPJXr3foGRcshg_3U-92" value="1" style="edgeLabel;html=1;align=center;verticalAlign=middle;resizable=0;points=[];fontSize=12;" vertex="1" connectable="0" parent="BiotPJXr3foGRcshg_3U-90">
          <mxGeometry x="0.72" y="-1" relative="1" as="geometry">
            <mxPoint y="-11" as="offset" />
          </mxGeometry>
        </mxCell>
        <mxCell id="BiotPJXr3foGRcshg_3U-93" style="rounded=0;orthogonalLoop=1;jettySize=auto;html=1;entryX=0;entryY=0.5;entryDx=0;entryDy=0;endArrow=none;endFill=0;fontSize=12;" edge="1" parent="1" target="BiotPJXr3foGRcshg_3U-61">
          <mxGeometry relative="1" as="geometry">
            <mxPoint x="990" y="390" as="sourcePoint" />
            <mxPoint x="1140" y="150" as="targetPoint" />
          </mxGeometry>
        </mxCell>
        <mxCell id="BiotPJXr3foGRcshg_3U-94" value="1" style="edgeLabel;html=1;align=center;verticalAlign=middle;resizable=0;points=[];fontSize=12;" vertex="1" connectable="0" parent="BiotPJXr3foGRcshg_3U-93">
          <mxGeometry x="-0.82" relative="1" as="geometry">
            <mxPoint y="-10" as="offset" />
          </mxGeometry>
        </mxCell>
        <mxCell id="BiotPJXr3foGRcshg_3U-95" value="1" style="edgeLabel;html=1;align=center;verticalAlign=middle;resizable=0;points=[];fontSize=12;" vertex="1" connectable="0" parent="BiotPJXr3foGRcshg_3U-93">
          <mxGeometry x="0.72" y="-1" relative="1" as="geometry">
            <mxPoint y="-11" as="offset" />
          </mxGeometry>
        </mxCell>
        <mxCell id="BiotPJXr3foGRcshg_3U-96" style="rounded=0;orthogonalLoop=1;jettySize=auto;html=1;exitX=1;exitY=0.5;exitDx=0;exitDy=0;entryX=0;entryY=0.5;entryDx=0;entryDy=0;endArrow=none;endFill=0;fontSize=12;" edge="1" parent="1" source="BiotPJXr3foGRcshg_3U-56" target="BiotPJXr3foGRcshg_3U-63">
          <mxGeometry relative="1" as="geometry">
            <mxPoint x="1020" y="420" as="sourcePoint" />
            <mxPoint x="1150" y="160" as="targetPoint" />
          </mxGeometry>
        </mxCell>
        <mxCell id="BiotPJXr3foGRcshg_3U-97" value="1" style="edgeLabel;html=1;align=center;verticalAlign=middle;resizable=0;points=[];fontSize=12;" vertex="1" connectable="0" parent="BiotPJXr3foGRcshg_3U-96">
          <mxGeometry x="-0.82" relative="1" as="geometry">
            <mxPoint y="-10" as="offset" />
          </mxGeometry>
        </mxCell>
        <mxCell id="BiotPJXr3foGRcshg_3U-98" value="1" style="edgeLabel;html=1;align=center;verticalAlign=middle;resizable=0;points=[];fontSize=12;" vertex="1" connectable="0" parent="BiotPJXr3foGRcshg_3U-96">
          <mxGeometry x="0.72" y="-1" relative="1" as="geometry">
            <mxPoint y="-11" as="offset" />
          </mxGeometry>
        </mxCell>
        <mxCell id="BiotPJXr3foGRcshg_3U-99" style="rounded=0;orthogonalLoop=1;jettySize=auto;html=1;entryX=0;entryY=0.5;entryDx=0;entryDy=0;endArrow=none;endFill=0;fontSize=12;exitX=1;exitY=0.5;exitDx=0;exitDy=0;" edge="1" parent="1" source="BiotPJXr3foGRcshg_3U-56" target="BiotPJXr3foGRcshg_3U-65">
          <mxGeometry relative="1" as="geometry">
            <mxPoint x="990" y="380" as="sourcePoint" />
            <mxPoint x="1160" y="170" as="targetPoint" />
          </mxGeometry>
        </mxCell>
        <mxCell id="BiotPJXr3foGRcshg_3U-100" value="1" style="edgeLabel;html=1;align=center;verticalAlign=middle;resizable=0;points=[];fontSize=12;" vertex="1" connectable="0" parent="BiotPJXr3foGRcshg_3U-99">
          <mxGeometry x="-0.82" relative="1" as="geometry">
            <mxPoint y="-10" as="offset" />
          </mxGeometry>
        </mxCell>
        <mxCell id="BiotPJXr3foGRcshg_3U-101" value="1" style="edgeLabel;html=1;align=center;verticalAlign=middle;resizable=0;points=[];fontSize=12;" vertex="1" connectable="0" parent="BiotPJXr3foGRcshg_3U-99">
          <mxGeometry x="0.72" y="-1" relative="1" as="geometry">
            <mxPoint y="-11" as="offset" />
          </mxGeometry>
        </mxCell>
        <object label="&lt;font color=&quot;#ffffff&quot;&gt;&amp;lt;%type%&amp;gt;&lt;br&gt;%name%&lt;br&gt;%createAt%&lt;br&gt;&lt;/font&gt;" placeholders="1" type="proposal" name="拍卖方案" createAt="create_at" id="BiotPJXr3foGRcshg_3U-105">
          <mxCell style="rounded=1;whiteSpace=wrap;html=1;fillColor=#FF66B3;noLabel=0;comic=0;recursiveResize=1;" vertex="1" parent="1">
            <mxGeometry x="1640" y="890" width="170" height="100" as="geometry" />
          </mxCell>
        </object>
        <object label="&lt;font color=&quot;#ffffff&quot;&gt;&amp;lt;%type%&amp;gt;&lt;br&gt;%name%&lt;br&gt;%createAt%&lt;br&gt;&lt;/font&gt;" placeholders="1" type="contract" name="拍品成交协议" createAt="create_at" id="BiotPJXr3foGRcshg_3U-106">
          <mxCell style="rounded=1;whiteSpace=wrap;html=1;fillColor=#FF66B3;noLabel=0;comic=0;recursiveResize=1;" vertex="1" parent="1">
            <mxGeometry x="1720" y="350" width="170" height="100" as="geometry" />
          </mxCell>
        </object>
        <object label="&lt;font color=&quot;#ffffff&quot;&gt;&amp;lt;%type%&amp;gt;&lt;br&gt;%name%&lt;br&gt;%createAt%&lt;br&gt;%expireAt%&lt;br&gt;&lt;/font&gt;" placeholders="1" type="fulfilment" name="尾款支付请求" createAt="create_at" expireAt="expire_at" id="BiotPJXr3foGRcshg_3U-107">
          <mxCell style="rounded=1;whiteSpace=wrap;html=1;fillColor=#FF66B3;noLabel=0;comic=0;recursiveResize=1;" vertex="1" parent="1">
            <mxGeometry x="2000" y="230" width="170" height="100" as="geometry" />
          </mxCell>
        </object>
        <object label="&lt;font color=&quot;#ffffff&quot;&gt;&amp;lt;%type%&amp;gt;&lt;br&gt;%name%&lt;br&gt;%createAt%&lt;br&gt;&lt;/font&gt;" placeholders="1" type="fulfilment" name="尾款支付确认" createAt="create_at" id="BiotPJXr3foGRcshg_3U-108">
          <mxCell style="rounded=1;whiteSpace=wrap;html=1;fillColor=#FF66B3;noLabel=0;comic=0;recursiveResize=1;" vertex="1" parent="1">
            <mxGeometry x="2270" y="230" width="170" height="100" as="geometry" />
          </mxCell>
        </object>
        <object label="&lt;font color=&quot;#ffffff&quot;&gt;&amp;lt;%type%&amp;gt;&lt;br&gt;%name%&lt;br&gt;%createAt%&lt;br&gt;%expireAt%&lt;br&gt;&lt;/font&gt;" placeholders="1" type="fulfilment" name="提货请求" createAt="create_at" expireAt="expire_at" id="BiotPJXr3foGRcshg_3U-109">
          <mxCell style="rounded=1;whiteSpace=wrap;html=1;fillColor=#FF66B3;noLabel=0;comic=0;recursiveResize=1;" vertex="1" parent="1">
            <mxGeometry x="2000" y="420" width="170" height="100" as="geometry" />
          </mxCell>
        </object>
        <object label="&lt;font color=&quot;#ffffff&quot;&gt;&amp;lt;%type%&amp;gt;&lt;br&gt;%name%&lt;br&gt;%createAt%&lt;br&gt;&lt;/font&gt;" placeholders="1" type="fulfilment" name="提货确认" createAt="create_at" id="BiotPJXr3foGRcshg_3U-110">
          <mxCell style="rounded=1;whiteSpace=wrap;html=1;fillColor=#FF66B3;noLabel=0;comic=0;recursiveResize=1;" vertex="1" parent="1">
            <mxGeometry x="2270" y="420" width="170" height="100" as="geometry" />
          </mxCell>
        </object>
        <mxCell id="BiotPJXr3foGRcshg_3U-117" style="rounded=0;orthogonalLoop=1;jettySize=auto;html=1;exitX=1;exitY=0.5;exitDx=0;exitDy=0;entryX=0;entryY=0.5;entryDx=0;entryDy=0;endArrow=none;endFill=0;fontSize=12;" edge="1" parent="1" source="BiotPJXr3foGRcshg_3U-106" target="BiotPJXr3foGRcshg_3U-107">
          <mxGeometry relative="1" as="geometry">
            <mxPoint x="2190" y="500" as="sourcePoint" />
            <mxPoint x="2290" y="500" as="targetPoint" />
          </mxGeometry>
        </mxCell>
        <mxCell id="BiotPJXr3foGRcshg_3U-118" value="1" style="edgeLabel;html=1;align=center;verticalAlign=middle;resizable=0;points=[];fontSize=12;" vertex="1" connectable="0" parent="BiotPJXr3foGRcshg_3U-117">
          <mxGeometry x="-0.82" relative="1" as="geometry">
            <mxPoint y="-10" as="offset" />
          </mxGeometry>
        </mxCell>
        <mxCell id="BiotPJXr3foGRcshg_3U-119" value="1" style="edgeLabel;html=1;align=center;verticalAlign=middle;resizable=0;points=[];fontSize=12;" vertex="1" connectable="0" parent="BiotPJXr3foGRcshg_3U-117">
          <mxGeometry x="0.72" y="-1" relative="1" as="geometry">
            <mxPoint y="-11" as="offset" />
          </mxGeometry>
        </mxCell>
        <mxCell id="BiotPJXr3foGRcshg_3U-120" style="edgeStyle=orthogonalEdgeStyle;rounded=0;orthogonalLoop=1;jettySize=auto;html=1;exitX=1;exitY=0.5;exitDx=0;exitDy=0;entryX=0;entryY=0.5;entryDx=0;entryDy=0;endArrow=none;endFill=0;fontSize=12;" edge="1" parent="1" source="BiotPJXr3foGRcshg_3U-107" target="BiotPJXr3foGRcshg_3U-108">
          <mxGeometry relative="1" as="geometry">
            <mxPoint x="2190" y="500" as="sourcePoint" />
            <mxPoint x="2290" y="500" as="targetPoint" />
          </mxGeometry>
        </mxCell>
        <mxCell id="BiotPJXr3foGRcshg_3U-121" value="1" style="edgeLabel;html=1;align=center;verticalAlign=middle;resizable=0;points=[];fontSize=12;" vertex="1" connectable="0" parent="BiotPJXr3foGRcshg_3U-120">
          <mxGeometry x="-0.82" relative="1" as="geometry">
            <mxPoint y="-10" as="offset" />
          </mxGeometry>
        </mxCell>
        <mxCell id="BiotPJXr3foGRcshg_3U-122" value="1" style="edgeLabel;html=1;align=center;verticalAlign=middle;resizable=0;points=[];fontSize=12;" vertex="1" connectable="0" parent="BiotPJXr3foGRcshg_3U-120">
          <mxGeometry x="0.72" y="-1" relative="1" as="geometry">
            <mxPoint y="-11" as="offset" />
          </mxGeometry>
        </mxCell>
        <mxCell id="BiotPJXr3foGRcshg_3U-123" style="edgeStyle=orthogonalEdgeStyle;rounded=0;orthogonalLoop=1;jettySize=auto;html=1;exitX=1;exitY=0.5;exitDx=0;exitDy=0;endArrow=none;endFill=0;fontSize=12;entryX=0;entryY=0.5;entryDx=0;entryDy=0;" edge="1" parent="1" source="BiotPJXr3foGRcshg_3U-109" target="BiotPJXr3foGRcshg_3U-110">
          <mxGeometry relative="1" as="geometry">
            <mxPoint x="2200" y="150" as="sourcePoint" />
            <mxPoint x="2250" y="260" as="targetPoint" />
          </mxGeometry>
        </mxCell>
        <mxCell id="BiotPJXr3foGRcshg_3U-124" value="1" style="edgeLabel;html=1;align=center;verticalAlign=middle;resizable=0;points=[];fontSize=12;" vertex="1" connectable="0" parent="BiotPJXr3foGRcshg_3U-123">
          <mxGeometry x="-0.82" relative="1" as="geometry">
            <mxPoint y="-10" as="offset" />
          </mxGeometry>
        </mxCell>
        <mxCell id="BiotPJXr3foGRcshg_3U-125" value="1" style="edgeLabel;html=1;align=center;verticalAlign=middle;resizable=0;points=[];fontSize=12;" vertex="1" connectable="0" parent="BiotPJXr3foGRcshg_3U-123">
          <mxGeometry x="0.72" y="-1" relative="1" as="geometry">
            <mxPoint y="-11" as="offset" />
          </mxGeometry>
        </mxCell>
        <mxCell id="BiotPJXr3foGRcshg_3U-135" style="rounded=0;orthogonalLoop=1;jettySize=auto;html=1;entryX=0;entryY=0.5;entryDx=0;entryDy=0;endArrow=none;endFill=0;fontSize=12;" edge="1" parent="1" target="BiotPJXr3foGRcshg_3U-109">
          <mxGeometry relative="1" as="geometry">
            <mxPoint x="1890" y="400" as="sourcePoint" />
            <mxPoint x="2030" y="150" as="targetPoint" />
          </mxGeometry>
        </mxCell>
        <mxCell id="BiotPJXr3foGRcshg_3U-136" value="1" style="edgeLabel;html=1;align=center;verticalAlign=middle;resizable=0;points=[];fontSize=12;" vertex="1" connectable="0" parent="BiotPJXr3foGRcshg_3U-135">
          <mxGeometry x="-0.82" relative="1" as="geometry">
            <mxPoint y="-10" as="offset" />
          </mxGeometry>
        </mxCell>
        <mxCell id="BiotPJXr3foGRcshg_3U-137" value="1" style="edgeLabel;html=1;align=center;verticalAlign=middle;resizable=0;points=[];fontSize=12;" vertex="1" connectable="0" parent="BiotPJXr3foGRcshg_3U-135">
          <mxGeometry x="0.72" y="-1" relative="1" as="geometry">
            <mxPoint y="-11" as="offset" />
          </mxGeometry>
        </mxCell>
      </root>
    </mxGraphModel>
  </diagram>
</mxfile>
